# xmcd
#
# Track frame offsets:
#	150
#	15056
#	31704
#	46923
#	66650
#	84718
#	108177
#	122121
#	149182
#	162731
#	176825
#	196462
#
# Disc length: 2864 seconds
#
# Revision: 0
# Processed by: cddbd v1.5.1PL0 Copyright (c) Steve Scherf et al.
# Submitted via: dBpowerAMP V4.0
#
DISCID=aa0b2e0c
DTITLE=Harrison Kennedy - Sweet Taste
DYEAR=2004
DGENRE=Blues
TTITLE0=Sweet Taste
TTITLE1=Direct Hit
TTITLE2=Mungumbo Man
TTITLE3=One Time Affair
TTITLE4=You Left
TTITLE5=Ain't That Enough
TTITLE6=I Ain't No Puppy
TTITLE7=I Can Feel You Leaving
TTITLE8=I'm The Chairman
TTITLE9=Commercial Tools
TTITLE10=Silvie
TTITLE11=Bending Down Low
EXTD=
EXTT0=
EXTT1=
EXTT2=
EXTT3=
EXTT4=
EXTT5=
EXTT6=
EXTT7=
EXTT8=
EXTT9=
EXTT10=
EXTT11=
PLAYORDER=
